Coordinates
version=1
nRows=13
nColumns=40
inDegrees=yes

Units are S.I. units (second, meters, Newtons, ...)
Angles are in degrees.

endheader
time	pelvis_tilt	pelvis_list	pelvis_rotation	pelvis_tx	pelvis_ty	pelvis_tz	hip_flexion_r	hip_adduction_r	hip_rotation_r	knee_angle_r	knee_angle_r_beta	ankle_angle_r	subtalar_angle_r	mtp_angle_r	hip_flexion_l	hip_adduction_l	hip_rotation_l	knee_angle_l	knee_angle_l_beta	ankle_angle_l	subtalar_angle_l	mtp_angle_l	lumbar_extension	lumbar_bending	lumbar_rotation	arm_flex_r	arm_add_r	arm_rot_r	elbow_flex_r	pro_sup_r	wrist_flex_r	wrist_dev_r	arm_flex_l	arm_add_l	arm_rot_l	elbow_flex_l	pro_sup_l	wrist_flex_l	wrist_dev_l
      5.36500000	     -7.00897919	     -4.32967361	     -5.29703007	      0.77801296	      0.92385217	      0.46448235	     28.35276456	      1.05133552	    -14.02966380	     13.10297882	     13.10297882	      1.31333161	      4.69817662	      6.22016722	      8.20516095	     -4.74370748	     -8.70023612	     18.17865010	     18.17865010	     17.72845947	    -10.92928361	     -0.94338906	    -10.58181680	      5.84736882	      1.24080791	     -9.33889294	    -12.91811449	    -10.46305797	     26.64960861	     47.07713915	      0.00000000	      0.00000000	     13.45838881	    -17.46547718	     -3.83328489	     77.07672561	     46.75380659	      0.00000000	      0.00000000
      5.37821429	     -6.96537353	     -4.19038561	     -5.26592144	      0.77930218	      0.92272755	      0.46628526	     28.02328147	      1.15936026	    -14.37667824	     12.66639659	     12.66639659	      1.20765383	      5.01994262	      6.31092850	      7.43592276	     -4.62331767	     -8.68777689	     17.87925128	     17.87925128	     18.13338982	    -10.81990578	     -1.02740030	    -10.29390029	      5.77484823	      1.18692612	     -9.59376211	    -12.55061469	    -10.47602364	     26.61553416	     47.07160228	      0.00000000	      0.00000000	     13.56338152	    -17.23800006	     -3.78735282	     77.43247043	     46.76572838	      0.00000000	      0.00000000
      5.39142857	     -6.80662128	     -4.13380843	     -5.25629910	      0.78095268	      0.92184610	      0.46818445	     27.53260845	      1.30910822	    -14.60208417	     12.61387680	     12.61387680	      1.16615292	      5.21970909	      6.04152394	      6.43029474	     -4.57692009	     -8.70635935	     17.43837834	     17.43837834	     18.54180520	    -10.65460410	     -0.99524258	    -10.11192872	      5.86236820	      1.25574851	     -9.74284339	    -12.29668832	    -10.51390511	     26.63411402	     47.06549899	      0.00000000	      0.00000000	     13.55464780	    -16.91166433	     -3.73276063	     77.87096665	     46.78070777	      0.00000000	      0.00000000
      5.40464286	     -6.75148430	     -4.12495581	     -5.19748406	      0.78261268	      0.92079765	      0.47021543	     27.18877539	      1.46753524	    -14.71091106	     12.94824169	     12.94824169	      1.23695103	      5.04343576	      5.71949180	      5.68769196	     -4.62709751	     -8.62495410	     17.27494934	     17.27494934	     18.94410959	    -10.61405450	     -1.01701653	     -9.77981946	      5.98471645	      1.20268618	     -9.73878309	    -11.95822645	    -10.49831422	     26.67740498	     47.05882314	      0.00000000	      0.00000000	     13.41305927	    -16.58999594	     -3.63482518	     78.01995424	     46.78054585	      0.00000000	      0.00000000
      5.41785714	     -6.49738606	     -3.94313208	     -5.17677289	      0.78461195	      0.91993785	      0.47229549	     26.62954945	      1.49634723	    -14.22689443	     13.36355640	     13.36355640	     -0.07268516	      3.93202630	      0.79200628	      4.67532658	     -4.46525260	     -8.66620927	     17.07547290	     17.07547290	     19.79540864	    -10.28262754	      0.22765771	     -9.69714777	      5.86929301	      1.05277248	     -9.65935309	    -11.71166694	    -10.78037789	     27.12200125	     47.01538205	      0.00000000	      0.00000000	     12.88831390	    -16.37164179	     -4.02008344	     79.17173517	     46.90565841	      0.00000000	      0.00000000
      5.43107143	     -6.47251891	     -4.00669491	     -5.09879321	      0.78644740	      0.91905884	      0.47451337	     26.21643242	      1.70200169	    -14.20066229	     13.87171536	     13.87171536	      0.19572100	      3.72610483	      0.54382001	      4.05672413	     -4.63263676	     -8.53100353	     17.09846076	     17.09846076	     20.17970033	    -10.32728466	      0.13810689	     -9.31401449	      6.06106615	      1.06205449	     -9.43441226	    -11.42829768	    -10.73395624	     27.19798151	     47.00846819	      0.00000000	      0.00000000	     12.59762118	    -15.97909736	     -3.85372699	     79.09054847	     46.89363458	      0.00000000	      0.00000000
      5.44428571	     -6.17421805	     -3.93142805	     -5.02122677	      0.78830494	      0.91850641	      0.47663732	     26.05033489	      1.63769131	    -13.74790890	     15.44465660	     15.44465660	      0.64901532	      2.65810830	     -0.40178494	      3.23985821	     -4.64756684	     -8.49900026	     17.28367502	     17.28367502	     20.45443565	    -10.28900499	      0.28234802	     -9.32428377	      6.17338762	      1.07538288	     -9.03632930	    -11.31118786	    -10.67164834	     27.30020877	     46.99672514	      0.00000000	      0.00000000	     12.33312839	    -15.62809659	     -3.79265975	     78.91146112	     46.89508052	      0.00000000	      0.00000000
      5.45750000	     -6.05435218	     -3.86103840	     -4.93617746	      0.78996192	      0.91796334	      0.47890844	     25.86890881	      1.66585784	    -13.20271838	     16.56616147	     16.56616147	      0.96688724	      1.56480703	     -1.40208696	      2.86916849	     -4.72891282	     -8.36994443	     17.90894768	     17.90894768	     20.72119476	    -10.49069985	      0.47977641	     -9.11725785	      6.21780151	      1.05518541	     -8.54163494	    -11.09409169	    -10.56606958	     27.47996767	     46.97692550	      0.00000000	      0.00000000	     11.90834195	    -15.21817412	     -3.74657029	     78.68047864	     46.89862108	      0.00000000	      0.00000000
      5.47071429	     -5.91205627	     -3.83620610	     -4.82132806	      0.79149498	      0.91775702	      0.48116625	     25.49487350	      1.80928343	    -12.44509085	     17.27793254	     17.27793254	      0.85132906	      0.07573698	     -3.39351793	      2.73176290	     -4.89339110	     -8.16241765	     19.00231357	     19.00231357	     21.12127152	    -10.80023649	      1.18154329	     -8.96997794	      6.36155398	      0.91238165	     -7.88741782	    -10.97157748	    -10.18654690	     27.76037523	     46.91275416	      0.00000000	      0.00000000	     11.35100284	    -14.72612305	     -4.02140751	     78.34788812	     46.95490887	      0.00000000	      0.00000000
      5.48392857	     -5.74311068	     -3.80380684	     -4.69679363	      0.79282495	      0.91788516	      0.48340291	     25.16900024	      1.80987427	    -12.21778929	     18.16061155	     18.16061155	      1.42494416	     -0.37939674	     -3.95878504	      2.78840529	     -5.08367304	     -7.91980277	     20.44389638	     20.44389638	     21.06276323	    -11.37442706	      1.05889907	     -8.93625557	      6.48156129	      0.88366365	     -7.15179632	    -10.88649148	    -10.05597591	     28.09968225	     46.88642408	      0.00000000	      0.00000000	     10.83028591	    -14.34179319	     -3.90006229	     77.94087434	     46.94968763	      0.00000000	      0.00000000
      5.49714286	     -5.59015178	     -3.79254714	     -4.55548418	      0.79383557	      0.91829960	      0.48562624	     24.78538279	      1.85497005	    -11.94629208	     18.82861893	     18.82861893	      2.02410409	     -0.88321049	     -4.34846055	      3.16456915	     -5.32385527	     -7.58121625	     22.37288310	     22.37288310	     20.76550656	    -12.23261671	      0.81780916	     -8.92651864	      6.62251456	      0.80890045	     -6.30023340	    -10.83935871	     -9.89710748	     28.56302550	     46.85270394	      0.00000000	      0.00000000	     10.27842509	    -13.92735424	     -3.85531715	     77.32304519	     46.94701964	      0.00000000	      0.00000000
      5.51035714	     -5.32325414	     -3.82108882	     -4.39367333	      0.79465613	      0.91916956	      0.48784341	     24.17413951	      1.92457717	    -11.83904493	     19.26230520	     19.26230520	      2.65129291	     -1.10840093	     -4.61318749	      3.65390824	     -5.63033811	     -7.24761527	     24.68898826	     24.68898826	     20.24429182	    -13.19811789	      0.51506659	     -9.11801025	      6.76174322	      0.81025012	     -5.34405201	    -10.83464254	     -9.80112744	     29.05764542	     46.82754087	      0.00000000	      0.00000000	      9.77153301	    -13.52508327	     -3.76123485	     76.71007890	     46.93481011	      0.00000000	      0.00000000
      5.52357143	     -5.14708751	     -3.86102997	     -4.22428272	      0.79516383	      0.92013405	      0.49004526	     23.58006585	      2.01371180	    -11.83062936	     19.48747987	     19.48747987	      3.24377786	     -1.18543467	     -4.81053382	      4.52341138	     -5.98124381	     -6.87665794	     27.45882060	     27.45882060	     19.48564054	    -14.33055918	      0.15199862	     -9.24000073	      6.93715511	      0.77966140	     -4.28868098	    -10.85152153	     -9.71757731	     29.65133731	     46.80055231	      0.00000000	      0.00000000	      9.25337751	    -13.13742742	     -3.67837751	     75.95827479	     46.91987640	      0.00000000	      0.00000000
